<svg xmlns="http://www.w3.org/2000/svg" viewBox="0 0 60 60.1"><defs><style>.cls-1{fill:#ff9d27;}.cls-2{fill:#fdf516;}.cls-3{fill:#55ebd4;}.cls-4{fill:#46bca5;}.cls-5{fill:#c5d0d8;}.cls-6{fill:#dae3ea;}.cls-7{fill:#ce5852;}.cls-8{fill:#ff6e60;}.cls-9{fill:#3e4347;}.cls-10{fill:#62727a;}.cls-11{fill:#edf4f9;}.cls-12{fill:#fff;}</style></defs><title>myRocket</title><g id="Layer_2" data-name="Layer 2"><g id="Layer_1-2" data-name="Layer 1"><path class="cls-1" d="M8.9,46.7c4-4,4.4-5,6.9-2.5s1.5,2.8-2.5,6.9a8.43,8.43,0,0,1-6.8,2.4,8.43,8.43,0,0,1,2.4-6.8"/><path class="cls-1" d="M16.5,50.8c1.6-4.2,2.1-4.7-.2-6s-2.3-.4-3.8,3.8a7.89,7.89,0,0,0,.2,5.9,5.43,5.43,0,0,0,3.8-3.7"/><path class="cls-2" d="M14.2,46.9c.9-2.3.9-2.8,2.1-2.1s1,1,.1,3.3a3.34,3.34,0,0,1-2.1,2.1,4.81,4.81,0,0,1-.1-3.3"/><path class="cls-1" d="M15.1,43.7c-1.3-2.3-1.8-1.8-6-.2a5.91,5.91,0,0,0-3.7,3.8,7.89,7.89,0,0,0,5.9.2c4.2-1.6,5.1-1.6,3.8-3.8"/><path class="cls-2" d="M13,45.8c2.3-.9,2.8-.9,2.1-2.1s-1-1-3.3-.1a3.34,3.34,0,0,0-2.1,2.1,4.93,4.93,0,0,0,3.3.1"/><path class="cls-2" d="M11.9,45.6c2.2-2.2,2.4-2.8,3.8-1.4s.8,1.6-1.4,3.8a4.53,4.53,0,0,1-3.8,1.3,5.09,5.09,0,0,1,1.4-3.7"/><path class="cls-3" d="M16.5,36A13.28,13.28,0,0,0,0,29.9s14.7-14.7,24.6-4.8Z"/><path class="cls-4" d="M21.3,28.3l3.2-3.2C14.7,15.2,0,29.9,0,29.9s12.9-9.2,21.3-1.6"/><path class="cls-3" d="M24,43.5A13.28,13.28,0,0,1,30.1,60s14.7-14.7,4.8-24.6Z"/><path class="cls-4" d="M31.7,38.7l3.2-3.2c9.9,9.9-4.8,24.6-4.8,24.6s9.2-13,1.6-21.4"/><path class="cls-5" d="M46.8,28.9C35.1,40.5,22.2,46.8,17.7,42.3s1.8-17.4,13.4-29.1C44.7-.4,59.8.2,59.8.2s.5,15.1-13,28.7"/><path class="cls-6" d="M43.8,25.6C32.2,37.2,20.6,44.8,17.9,42.1s4.9-14.3,16.5-25.9C48,2.6,60,0,60,0S57.4,12,43.8,25.6Z"/><path class="cls-7" d="M22.3,45.5a1.27,1.27,0,0,1-1.8,0l-6-6a1.39,1.39,0,0,1,0-1.9l1.8-1.8,7.8,7.8-1.8,1.9"/><path class="cls-8" d="M20.6,43.7c-.5.5-1.1.7-1.4.4l-3.4-3.4c-.3-.3-.1-.9.4-1.4L18,37.5l4.4,4.4-1.8,1.8"/><path class="cls-9" d="M18.9,46.2a1.05,1.05,0,0,1-1.3,0l-3.9-3.9a.92.92,0,0,1,.1-1.2L15,39.9,20.1,45l-1.2,1.2"/><path class="cls-10" d="M18.1,45.4c-.3.3-.9.4-1.1.2l-2.7-2.7c-.2-.2-.1-.7.3-1l1.2-1.2,3.5,3.5-1.2,1.2"/><path class="cls-7" d="M59.8.2A35.43,35.43,0,0,0,47.1,2.8L57.2,12.9A35.43,35.43,0,0,0,59.8.2"/><path class="cls-8" d="M59.8.2A41.77,41.77,0,0,0,49,4.8L55.2,11A41.77,41.77,0,0,0,59.8.2"/><circle class="cls-11" cx="41.5" cy="18.5" r="5"/><circle class="cls-3" cx="41.5" cy="18.5" r="3.3"/><circle class="cls-11" cx="31.5" cy="28.5" r="5"/><circle class="cls-3" cx="31.5" cy="28.5" r="3.3"/><path class="cls-12" d="M46.9,4.9a.91.91,0,0,1-1.2,0,.91.91,0,0,1,0-1.2.91.91,0,0,1,1.2,0,.91.91,0,0,1,0,1.2"/><circle class="cls-12" cx="48.6" cy="6.6" r="0.8"/><circle class="cls-12" cx="51" cy="9" r="0.8"/><circle class="cls-12" cx="53.3" cy="11.4" r="0.8"/><circle class="cls-12" cx="55.7" cy="13.7" r="0.8"/></g></g></svg>